<svg width="55" height="74" viewBox="0 0 55 74" fill="none" xmlns="http://www.w3.org/2000/svg">
<g clip-path="url(#clip0_1_188)">
<path d="M27.4152 1.68536C23.9233 1.68536 20.7256 2.93708 18.2396 5.01275C19.0558 9.15206 22.0429 13.5577 26.6677 16.756C31.5036 20.1003 36.9431 21.3059 41.1931 20.3909C41.5495 18.8661 41.7443 17.3792 41.7443 16.0145C41.7443 8.10078 35.3289 1.68536 27.4152 1.68536Z" fill="#CCF4E5"/>
<path d="M13.086 16.0144C13.086 13.7924 13.6066 11.6969 14.5093 9.81983L14.4998 9.8006C14.4998 9.8006 5.00112 23.8794 9.67426 32.9541C14.3475 42.0289 27.4152 35.9185 27.4152 35.9185C19.5014 35.9185 13.086 23.9282 13.086 16.0144Z" fill="#CCF4E5"/>
<path d="M41.7443 16.0144C41.7443 13.7924 41.2238 11.6969 40.321 9.81983L40.3305 9.8006C40.3305 9.8006 49.8292 23.8794 45.1561 32.9541C40.4829 42.0289 27.4152 35.9185 27.4152 35.9185C35.329 35.9185 41.7443 23.9282 41.7443 16.0144Z" fill="#CCF4E5"/>
<path d="M27.4152 36.7513C18.7639 36.7513 12.2531 24.1717 12.2531 16.0144C12.2531 7.65415 19.0546 0.8526 27.4152 0.8526C35.7754 0.8526 42.577 7.65415 42.577 16.0144C42.577 24.1717 36.0662 36.7513 27.4152 36.7513ZM27.4152 2.51822C19.9732 2.51822 13.9187 8.57276 13.9187 16.0144C13.9187 23.5454 19.9651 35.0856 27.4152 35.0856C34.865 35.0856 40.9114 23.5454 40.9114 16.0144C40.9114 8.57276 34.8568 2.51822 27.4152 2.51822Z" fill="#172627"/>
<path d="M53.8785 73.5774H0.951962C0.701468 73.5774 0.464394 73.4648 0.306209 73.2704C0.148024 73.0764 0.0858072 72.8211 0.136231 72.5759L3.5793 55.9302C5.10137 48.5728 10.8696 43.001 18.2755 41.7355L20.0773 41.4276C24.9469 40.5961 29.8844 40.5961 34.7531 41.4276L36.555 41.7355C43.9604 43.0014 49.7287 48.5728 51.2507 55.9302L54.6942 72.5759C54.7446 72.8211 54.6824 73.0764 54.5242 73.2704C54.366 73.4648 54.129 73.5774 53.8785 73.5774ZM1.97467 71.9118H52.8558L49.6193 56.2678C48.2375 49.5866 42.9991 44.5267 36.2744 43.3775L34.4725 43.0697C29.7888 42.269 25.04 42.2694 20.3579 43.0697L18.556 43.3775C11.8309 44.5267 6.59254 49.5866 5.21076 56.2678L1.97467 71.9118Z" fill="#172627"/>
<path d="M10.4366 73.5775C9.97665 73.5775 9.60376 73.2046 9.60376 72.7447V62.7001C9.60376 62.2402 9.97665 61.8673 10.4366 61.8673C10.8965 61.8673 11.2694 62.2402 11.2694 62.7001V72.7447C11.2694 73.2046 10.8965 73.5775 10.4366 73.5775Z" fill="#172627"/>
<path d="M44.3939 73.5775C43.934 73.5775 43.5611 73.2046 43.5611 72.7447V62.7001C43.5611 62.2402 43.934 61.8673 44.3939 61.8673C44.8538 61.8673 45.2267 62.2402 45.2267 62.7001V72.7447C45.2267 73.2046 44.8538 73.5775 44.3939 73.5775Z" fill="#172627"/>
</g>
<defs>
<clipPath id="clip0_1_188">
<rect width="54.66" height="72.7249" fill="white" transform="translate(0.0900269 0.8526)"/>
</clipPath>
</defs>
</svg>
