<svg width="67" height="68" viewBox="0 0 67 68" fill="none" xmlns="http://www.w3.org/2000/svg">
<g clip-path="url(#clip0_1_159)">
<path d="M61.1336 67.2447H5.28022C2.42916 67.2447 0.109985 64.9255 0.109985 62.0744V5.90525C0.109985 3.05459 2.42916 0.735413 5.28022 0.735413H61.1336C63.9843 0.735413 66.3035 3.05459 66.3035 5.90525V62.0744C66.3035 64.9255 63.9843 67.2447 61.1336 67.2447ZM5.28022 2.38089C3.33666 2.38089 1.75546 3.96209 1.75546 5.90525V62.0744C1.75546 64.018 3.33666 65.5992 5.28022 65.5992H61.1336C63.0768 65.5992 64.658 64.018 64.658 62.0744V5.90525C64.658 3.96209 63.0768 2.38089 61.1336 2.38089H5.28022Z" fill="#172627"/>
<path d="M13.0242 39.9558H22.6591V52.9058H13.0242V39.9558Z" fill="#CCF4E5"/>
<path d="M53.7899 52.9058H44.1549L44.1549 12.2644H53.7899L53.7899 52.9058Z" fill="#CCF4E5"/>
<path d="M28.5896 26.5329H38.2246V52.9058H28.5896V26.5329Z" fill="#CCF4E5"/>
<path d="M57.6117 53.7285H8.80217C8.34782 53.7285 7.97943 53.3602 7.97943 52.9058C7.97943 52.4515 8.34782 52.0831 8.80217 52.0831H57.6117C58.066 52.0831 58.4344 52.4515 58.4344 52.9058C58.4344 53.3602 58.066 53.7285 57.6117 53.7285Z" fill="#172627"/>
</g>
<defs>
<clipPath id="clip0_1_159">
<rect width="66.19" height="66.5092" fill="white" transform="translate(0.109985 0.735413)"/>
</clipPath>
</defs>
</svg>
