<svg width="49" height="66" viewBox="0 0 49 66" fill="none" xmlns="http://www.w3.org/2000/svg">
<g clip-path="url(#clip0_1_66)">
<path d="M20.5702 40.1652C31.5 40.1652 40.3603 31.3048 40.3603 20.375C40.3603 9.44517 31.5 0.584808 20.5702 0.584808C9.64036 0.584808 0.779999 9.44517 0.779999 20.375C0.779999 31.3048 9.64036 40.1652 20.5702 40.1652Z" fill="#CCF4E5"/>
<path d="M36.1195 62.0539H13.8556C13.4774 62.0539 13.1709 61.7473 13.1709 61.3692V48.6573C13.1709 46.4661 12.1579 44.4043 10.3916 43.0008C4.0554 37.9658 0.78566 30.1325 1.64555 22.0464C2.82774 10.932 12.1451 1.96799 23.3191 1.19503C29.9087 0.738667 36.1937 2.95894 41.0027 7.44697C45.7458 11.8731 48.4663 18.1311 48.4663 24.6158C48.4663 31.8259 45.2199 38.5339 39.5601 43.0195C37.8085 44.4077 36.8042 46.4621 36.8042 48.656V61.3692C36.8042 61.7473 36.4976 62.0539 36.1195 62.0539ZM14.5403 60.6845H35.4348V48.656C35.4348 46.0415 36.6284 43.5959 38.7096 41.9463C44.0398 37.7218 47.0969 31.405 47.0969 24.6158C47.0969 18.5092 44.5352 12.6164 40.0683 8.44795C35.5405 4.22271 29.6309 2.13449 23.4134 2.56109C12.8927 3.28893 4.12025 11.7281 3.00761 22.1915C2.19753 29.8085 5.27636 37.1868 11.2435 41.929C13.3387 43.5936 14.5403 46.0459 14.5403 48.6573V60.6845Z" fill="#172627"/>
<path d="M24.8209 65.9852C19.9591 65.9852 16.1507 63.9575 16.1507 61.3692C16.1507 60.991 16.4573 60.6844 16.8354 60.6844C17.2136 60.6844 17.5201 60.991 17.5201 61.3692C17.5201 62.9047 20.5184 64.6158 24.8209 64.6158C29.1233 64.6158 32.1219 62.9047 32.1219 61.3692C32.1219 60.991 32.4285 60.6844 32.8066 60.6844C33.1848 60.6844 33.4914 60.991 33.4914 61.3692C33.4914 63.9575 29.6827 65.9852 24.8209 65.9852Z" fill="#172627"/>
<path d="M11.2047 49.342C10.8479 49.342 10.5474 49.0659 10.5223 48.7048C10.4962 48.3273 10.7807 48.0004 11.1578 47.9743L38.7226 46.0643C39.1107 46.0419 39.427 46.323 39.4531 46.6998C39.4792 47.0773 39.1946 47.4043 38.8175 47.4303L11.2528 49.3404C11.2364 49.3414 11.2204 49.342 11.2047 49.342Z" fill="#172627"/>
<path d="M11.2047 53.7214C10.8479 53.7214 10.5474 53.4452 10.5223 53.0842C10.4962 52.7067 10.7807 52.3797 11.1578 52.3537L38.7226 50.4436C39.1107 50.4239 39.427 50.7021 39.4531 51.0792C39.4792 51.4567 39.1946 51.7836 38.8175 51.8097L11.2528 53.7197C11.2364 53.7207 11.2204 53.7214 11.2047 53.7214Z" fill="#172627"/>
<path d="M11.2047 58.1011C10.8479 58.1011 10.5474 57.825 10.5223 57.4639C10.4962 57.0864 10.7807 56.7594 11.1578 56.7334L38.7226 54.823C39.1107 54.7979 39.427 55.0818 39.4531 55.4586C39.4792 55.836 39.1946 56.163 38.8175 56.1891L11.2528 58.0994C11.2364 58.1004 11.2204 58.1011 11.2047 58.1011Z" fill="#172627"/>
</g>
<defs>
<clipPath id="clip0_1_66">
<rect width="47.69" height="65.4004" fill="white" transform="translate(0.779999 0.584808)"/>
</clipPath>
</defs>
</svg>
