<svg width="50" height="68" viewBox="0 0 50 68" fill="none" xmlns="http://www.w3.org/2000/svg">
<g clip-path="url(#clip0_1_101)">
<path d="M23.1981 61.7824H3.08213C1.761 61.7824 0.690002 60.7114 0.690002 59.3903V3.16233C0.690002 1.8412 1.761 0.770203 3.08213 0.770203H23.1981C24.5193 0.770203 25.5902 1.8412 25.5902 3.16233V59.3903C25.5902 60.7114 24.5193 61.7824 23.1981 61.7824Z" fill="#CCF4E5"/>
<path d="M33.4097 67.2099H4.24354C3.8032 67.2099 3.44617 66.8528 3.44617 66.4125V3.54817C3.44617 3.10782 3.8032 2.75079 4.24354 2.75079H48.6066C49.047 2.75079 49.404 3.10782 49.404 3.54817V51.2156C49.404 51.427 49.3199 51.6299 49.1704 51.7794L33.9735 66.9763C33.824 67.1258 33.6211 67.2099 33.4097 67.2099ZM5.04092 65.6151H33.0796L47.8092 50.8854V4.34555H5.04092V65.6151Z" fill="#172627"/>
<path d="M33.4097 67.2099C33.3069 67.2099 33.2034 67.19 33.1045 67.1491C32.8066 67.0257 32.6123 66.7349 32.6123 66.4125V51.2156C32.6123 50.7752 32.9694 50.4182 33.4097 50.4182H48.6066C48.929 50.4182 49.2198 50.6125 49.3432 50.9103C49.4667 51.2086 49.3985 51.5512 49.1704 51.7794L33.9735 66.9762C33.8209 67.1289 33.6168 67.2099 33.4097 67.2099ZM34.2071 52.013V64.4876L46.6817 52.013H34.2071Z" fill="#172627"/>
<path d="M39.4286 22.8865H13.4212C12.9808 22.8865 12.6238 22.5295 12.6238 22.0891C12.6238 21.6488 12.9808 21.2917 13.4212 21.2917H39.4286C39.869 21.2917 40.226 21.6488 40.226 22.0891C40.226 22.5295 39.869 22.8865 39.4286 22.8865Z" fill="#172627"/>
<path d="M39.4286 30.9121H13.4212C12.9808 30.9121 12.6238 30.555 12.6238 30.1147C12.6238 29.6744 12.9808 29.3173 13.4212 29.3173H39.4286C39.869 29.3173 40.226 29.6744 40.226 30.1147C40.226 30.555 39.869 30.9121 39.4286 30.9121Z" fill="#172627"/>
<path d="M32.2522 38.9372H13.4212C12.9808 38.9372 12.6238 38.5802 12.6238 38.1398C12.6238 37.6995 12.9808 37.3425 13.4212 37.3425H32.2522C32.6926 37.3425 33.0496 37.6995 33.0496 38.1398C33.0496 38.5802 32.6926 38.9372 32.2522 38.9372Z" fill="#172627"/>
</g>
<defs>
<clipPath id="clip0_1_101">
<rect width="48.78" height="66.4397" fill="white" transform="translate(0.690002 0.770203)"/>
</clipPath>
</defs>
</svg>
