<svg width="76" height="72" viewBox="0 0 76 72" fill="none" xmlns="http://www.w3.org/2000/svg">
<g clip-path="url(#clip0_1_23)">
<path d="M70.2894 71.4729H5.1307C4.67204 71.4729 4.30017 71.1011 4.30017 70.6424V5.16457C4.30017 4.70592 4.67204 4.33405 5.1307 4.33405H70.2894C70.748 4.33405 71.1199 4.70592 71.1199 5.16457V70.6424C71.1199 71.1011 70.748 71.4729 70.2894 71.4729ZM5.96123 69.8119H69.4589V5.9951H5.96123V69.8119Z" fill="#172627"/>
<path d="M74.1995 22.7128H1.22054C0.761887 22.7128 0.390015 22.3409 0.390015 21.8822C0.390015 21.4236 0.761887 21.0517 1.22054 21.0517H74.1995C74.6581 21.0517 75.03 21.4236 75.03 21.8822C75.03 22.3409 74.6581 22.7128 74.1995 22.7128Z" fill="#172627"/>
<path d="M58.2857 10.0675C57.827 10.0675 57.4551 9.69559 57.4551 9.23693V1.09225C57.4551 0.633591 57.827 0.261719 58.2857 0.261719C58.7443 0.261719 59.1162 0.633591 59.1162 1.09225V9.23693C59.1162 9.69559 58.7443 10.0675 58.2857 10.0675Z" fill="#172627"/>
<path d="M44.4339 10.0675C43.9753 10.0675 43.6034 9.69559 43.6034 9.23693V1.09225C43.6034 0.633591 43.9753 0.261719 44.4339 0.261719C44.8926 0.261719 45.2644 0.633591 45.2644 1.09225V9.23693C45.2644 9.69559 44.8926 10.0675 44.4339 10.0675Z" fill="#172627"/>
<path d="M30.5818 10.0675C30.1232 10.0675 29.7513 9.69559 29.7513 9.23693V1.09225C29.7513 0.633591 30.1232 0.261719 30.5818 0.261719C31.0405 0.261719 31.4123 0.633591 31.4123 1.09225V9.23693C31.4123 9.69559 31.0405 10.0675 30.5818 10.0675Z" fill="#172627"/>
<path d="M16.7301 10.0675C16.2714 10.0675 15.8995 9.69559 15.8995 9.23693V1.09225C15.8995 0.633591 16.2714 0.261719 16.7301 0.261719C17.1887 0.261719 17.5606 0.633591 17.5606 1.09225V9.23693C17.5606 9.69559 17.1887 10.0675 16.7301 10.0675Z" fill="#172627"/>
<path d="M17.1342 31.6222H26.8603V41.3484H17.1342V31.6222Z" fill="#CCF4E5"/>
<path d="M58.2857 41.3484H48.5595V31.6222H58.2857V41.3484Z" fill="#CCF4E5"/>
<path d="M32.8469 31.6222H42.5731V41.3484H32.8469V31.6222Z" fill="#CCF4E5"/>
<path d="M17.1342 48.8956H26.8603V58.6218H17.1342V48.8956Z" fill="#CCF4E5"/>
<path d="M58.2857 58.6218H48.5595V48.8956H58.2857V58.6218Z" fill="#CCF4E5"/>
<path d="M32.8469 48.8956H42.5731V58.6218H32.8469V48.8956Z" fill="#CCF4E5"/>
</g>
<defs>
<clipPath id="clip0_1_23">
<rect width="74.64" height="71.2066" fill="white" transform="translate(0.390015 0.261719)"/>
</clipPath>
</defs>
</svg>
