<svg width="66" height="63" viewBox="0 0 66 63" fill="none" xmlns="http://www.w3.org/2000/svg">
<g clip-path="url(#clip0_1_132)">
<path d="M29.2245 14.0819C24.2011 9.1452 17.0831 7.59576 11.2172 10.1599C5.29991 12.7464 1.40578 19.1543 1.64288 26.1001C1.81278 31.0769 3.8659 35.4136 6.61352 39.4307C13.1258 48.9519 22.0648 55.9221 31.2529 62.6078C31.386 62.7047 31.616 62.7387 31.858 62.7278V16.6909C30.9184 15.7595 30.0739 14.9168 29.2245 14.0819Z" fill="#CCF4E5"/>
<path d="M32.2977 59.301C31.9234 59.301 31.5601 59.2165 31.295 59.0239C22.0898 52.3259 12.5257 44.9436 5.63735 34.8726C2.19895 29.8457 0.523314 25.3369 0.364424 20.6831C0.109451 13.2093 4.27201 6.29322 10.723 3.47357C17.104 0.684575 24.7438 2.33629 30.1854 7.68436C30.782 8.27094 31.3757 8.86052 31.9997 9.48038L32.3986 9.87592C32.5777 9.69348 32.7534 9.51365 32.9261 9.33644C33.6503 8.59471 34.3345 7.89409 35.0598 7.2275C41.0449 1.72577 49.3648 0.563444 55.7626 4.33681C62.4166 8.26047 65.7514 16.5613 63.8731 24.5226C62.3467 30.9942 58.5269 36.0973 55.3697 39.8206C48.9315 47.4122 41.1208 53.4837 33.6395 58.9133C33.3097 59.1525 32.7942 59.301 32.2977 59.301ZM17.178 3.6676C15.1794 3.6676 13.1979 4.06315 11.3361 4.87704C5.4549 7.44733 1.66097 13.7783 1.89501 20.6308C2.04343 24.981 3.6342 29.2318 6.90099 34.0082C13.6522 43.8777 23.0989 51.1661 32.1964 57.7857C32.2685 57.7936 32.6278 57.7483 32.7418 57.6728C40.1439 52.3004 47.8682 46.2985 54.2018 38.8299C57.2483 35.2378 60.9312 30.3249 62.3829 24.1712C64.1087 16.8559 61.0666 9.24223 54.985 5.65579C49.1715 2.22712 41.581 3.31206 36.0961 8.35506C35.4011 8.99361 34.7311 9.67965 34.0219 10.4064C33.6761 10.7605 33.3202 11.125 32.9456 11.5007C32.6472 11.7987 32.1642 11.8002 31.8644 11.5037L30.9204 10.5668C30.2986 9.9492 29.7068 9.36112 29.1116 8.77677C25.72 5.44344 21.4116 3.6676 17.178 3.6676Z" fill="#172627"/>
</g>
<defs>
<clipPath id="clip0_1_132">
<rect width="65.64" height="62.1691" fill="white" transform="translate(0.109985 0.560486)"/>
</clipPath>
</defs>
</svg>
