<svg width="43" height="15" viewBox="0 0 43 15" fill="none" xmlns="http://www.w3.org/2000/svg">
<path d="M42.7036 10.1508C42.6312 10.1508 42.5651 10.1977 42.531 10.2958C42.0939 11.5435 41.5033 12.2857 41.0172 12.2857C40.7379 12.2857 40.6249 11.9743 40.6249 11.4859C40.6249 10.2638 41.3562 7.67245 41.7251 6.49087C41.7677 6.34798 41.7954 6.22001 41.7954 6.11123C41.7954 5.76785 41.6078 5.59936 41.143 5.59936C40.642 5.59936 40.1026 5.79558 39.5781 6.71482C39.3969 5.90435 38.849 5.55031 38.0836 5.55031C37.1988 5.55031 36.3439 6.11977 35.6403 7.04327C34.9368 7.96678 34.1096 8.26964 33.487 8.12034C33.9347 7.02408 34.101 6.20508 34.101 5.59723C34.101 4.64386 33.6298 4.068 32.8687 4.068C31.711 4.068 31.0437 5.1728 31.0437 6.33518C31.0437 7.23309 31.4509 8.1566 32.3464 8.60449C31.5959 10.3022 30.5001 11.8378 30.0843 11.8378C29.5471 11.8378 29.3893 9.20807 29.4191 7.32694C29.4383 6.24773 29.5279 6.19228 29.5279 5.86596C29.5279 5.67827 29.4064 5.55031 28.9181 5.55031C27.7796 5.55031 27.4279 6.51434 27.3746 7.62126C27.3574 8.04192 27.2915 8.45917 27.1784 8.86469C26.703 10.5624 25.7223 11.8506 25.0827 11.8506C24.7863 11.8506 24.7053 11.5542 24.7053 11.166C24.7053 9.94389 25.3897 8.4168 25.3897 7.11365C25.3897 6.15602 24.9697 5.55031 24.1787 5.55031C23.247 5.55031 22.0147 6.65937 20.8485 8.73672C21.2323 7.14565 21.39 5.60576 20.2537 5.60576C20.0072 5.60944 19.7651 5.67235 19.548 5.78918C19.4751 5.82328 19.4141 5.87854 19.3731 5.94778C19.332 6.01701 19.3127 6.097 19.3177 6.17735C19.4265 7.8708 17.9533 12.2089 16.5568 12.2089C16.3031 12.2089 16.1794 11.9338 16.1794 11.4902C16.1794 10.2659 16.9086 7.68098 17.2753 6.49727C17.3222 6.34371 17.3478 6.21148 17.3478 6.0963C17.3478 5.77212 17.1474 5.60576 16.6932 5.60576C16.1944 5.60576 15.6528 5.79558 15.1305 6.71482C14.9471 5.90435 14.3992 5.55031 13.6338 5.55031C12.3781 5.55031 10.9752 6.87905 10.3591 8.61089C9.53398 10.9229 7.87102 13.1559 5.63242 13.1559C3.60063 13.1559 2.52823 11.4646 2.52823 8.79218C2.52823 4.93392 5.35953 1.78163 7.45955 1.78163C8.46372 1.78163 8.94342 2.42147 8.94342 3.40257C8.94342 4.59054 8.28037 5.14294 8.28037 5.59509C8.28037 5.73373 8.39549 5.87023 8.62362 5.87023C9.53611 5.87023 10.6106 4.79742 10.6106 3.33432C10.6106 1.87121 9.42312 0.800537 7.3231 0.800537C3.8522 0.800537 0.359985 4.29408 0.359985 8.77085C0.359985 12.3326 2.11675 14.4804 5.15485 14.4804C7.22716 14.4804 9.03723 12.868 10.0137 10.9868C10.1245 12.5459 10.8324 13.3607 11.9112 13.3607C12.8706 13.3607 13.6466 12.7891 14.2393 11.7845C14.4674 12.836 15.0729 13.35 15.8596 13.35C16.7615 13.35 17.5162 12.7784 18.2347 11.7163C18.224 12.5502 18.4138 13.3351 19.1365 13.3351C19.4776 13.3351 19.8848 13.2561 19.9573 12.9576C20.7185 9.80953 22.5989 7.23949 23.1745 7.23949C23.3451 7.23949 23.392 7.40372 23.392 7.5978C23.392 8.45306 22.7886 10.2062 22.7886 11.326C22.7886 12.5353 23.3024 13.3351 24.3642 13.3351C25.541 13.3351 26.7371 11.8933 27.5345 9.78607C27.7839 11.7547 28.3233 13.3436 29.1676 13.3436C30.2037 13.3436 32.0436 11.1617 33.1587 8.8519C33.5957 8.90735 34.2524 8.89242 34.8835 8.44666C34.6148 9.12703 34.4571 9.87138 34.4571 10.6157C34.4571 12.7592 35.4804 13.3607 36.3609 13.3607C37.3182 13.3607 38.0943 12.7891 38.6891 11.7845C38.8852 12.691 39.3862 13.3479 40.3073 13.3479C41.7485 13.3479 43 11.8741 43 10.6648C43 10.3449 42.8635 10.1508 42.7036 10.1508ZM12.7895 12.1727C12.2075 12.1727 11.9794 11.5862 11.9794 10.7117C11.9794 9.19315 13.0177 6.65723 14.1157 6.65723C14.5954 6.65723 14.7766 7.22243 14.7766 7.91346C14.7766 9.45548 13.7895 12.1727 12.7895 12.1727ZM32.7259 7.64046C32.3784 7.22669 32.2526 6.66363 32.2526 6.16242C32.2526 5.54391 32.4786 5.02137 32.7493 5.02137C33.0201 5.02137 33.1032 5.28797 33.1032 5.65908C33.1032 6.27973 32.8815 7.18617 32.7259 7.64046ZM37.2393 12.1727C36.6573 12.1727 36.4292 11.4987 36.4292 10.7117C36.4292 9.24647 37.4674 6.65723 38.574 6.65723C39.0537 6.65723 39.2242 7.21816 39.2242 7.91346C39.2242 9.45548 38.2542 12.1727 37.2393 12.1727Z" fill="white"/>
</svg>
